<svg viewBox="0 0 91 91" xml:space="preserve" xmlns="http://www.w3.org/2000/svg"><path d="M76.931 85.25H3.313V7.739l55.802.001L84.88 31.732v45.572c0 4.371-3.577 7.946-7.949 7.946z" fill="#ffffff" class="fill-fde497"></path><path d="M48.222 61.858 30.559 44.194 67.736 7.019c3.025-3.03 7.944-3.03 10.972 0l6.689 6.69a7.761 7.761 0 0 1 0 10.973L48.222 61.858z" fill="#a8a8a8" class="fill-9abfda"></path><path d="M48.222 64.371a2.515 2.515 0 0 1-1.776-.736L28.782 45.971a2.513 2.513 0 0 1 0-3.553L65.96 5.242a10.196 10.196 0 0 1 7.262-3.008c2.745 0 5.325 1.069 7.264 3.009l6.688 6.69c4.002 4.003 4.003 10.519.001 14.524L49.998 63.635c-.471.47-1.11.736-1.776.736zM34.111 44.194l14.11 14.11L83.62 22.905a5.256 5.256 0 0 0-.001-7.42l-6.688-6.69c-.99-.991-2.308-1.537-3.71-1.537s-2.719.545-3.707 1.536l-35.403 35.4z" fill="#242424" class="fill-454b53"></path><path d="M81.451 31.142a2.505 2.505 0 0 1-1.776-.736L62.009 12.744a2.513 2.513 0 0 1 3.553-3.553l17.666 17.662a2.513 2.513 0 0 1-1.777 4.289z" fill="#242424" class="fill-454b53"></path><path fill="#c2c2c2" d="m47.981 61.611-23.878 6.457 6.647-23.682z" class="fill-e0f1f8"></path><path d="M24.103 70.58a2.513 2.513 0 0 1-2.419-3.191l6.647-23.682a2.514 2.514 0 0 1 4.195-1.098l17.231 17.225a2.51 2.51 0 0 1-1.12 4.202l-23.879 6.457a2.488 2.488 0 0 1-.655.087zm7.906-21.383-4.292 15.291 15.418-4.17-11.126-11.121zM48.178 46.75a2.514 2.514 0 0 1-1.776-4.29l17.182-17.179a2.513 2.513 0 0 1 3.553 3.553l-17.183 17.18c-.49.49-1.134.736-1.776.736z" fill="#242424" class="fill-454b53"></path><path d="M76.967 88.355H3.313A2.513 2.513 0 0 1 .8 85.842V7.74a2.513 2.513 0 0 1 2.513-2.513h49.455a2.513 2.513 0 1 1 0 5.026H5.825V83.33h71.142a5.25 5.25 0 0 0 5.243-5.248V41.017a2.513 2.513 0 1 1 5.026 0v37.065c-.001 5.665-4.607 10.273-10.269 10.273z" fill="#242424" class="fill-454b53"></path></svg>