<svg viewBox="0 0 64 64" xml:space="preserve" xmlns="http://www.w3.org/2000/svg" enable-background="new 0 0 64 64"><path d="M-122-429.1c-9.1 0-10.3-8.5-11.5-16.7-1.3-8.9-2.5-17.2-12.5-17.2s-11.2 8.4-12.5 17.2c-1.2 8.2-2.4 16.7-11.5 16.7v-2.6c6.4 0 7.6-5.4 8.9-14.4 1.2-8.7 2.8-19.5 15.1-19.5s13.9 10.8 15.1 19.5c1.3 9 2.5 14.4 8.9 14.4v2.6" transform="translate(178 478)" fill="#1a1a1a" class="fill-134563"></path><path d="M-146-423.5c-3.8 0-7-3.1-7-7h2.6c0 2.4 1.9 4.3 4.3 4.3s4.3-1.9 4.3-4.3h2.6c.2 3.9-3 7-6.8 7" transform="translate(178 478)" fill="#1a1a1a" class="fill-134563"></path><path d="M-170-431.8h48v2.8h-48zM-143.2-465.7c0 1.6-1.3 2.1-2.8 2.1s-2.8-.6-2.8-2.1 1.3-2.8 2.8-2.8 2.8 1.2 2.8 2.8" transform="translate(178 478)" fill="#1a1a1a" class="fill-134563"></path></svg>