<svg viewBox="0 0 512 512" xml:space="preserve" xmlns="http://www.w3.org/2000/svg"><path d="M409.6.1H102.4C74.7.1 52 23.1 52 51.1v409.5c0 28 22.7 51 50.4 51 25.3 4.7 73.5-54.7 138.8-142.8 11.8-15.8 21.8-9.4 28.5-.2 72.5 99.6 124.6 146.2 139.9 143 27.7 0 50.4-22.9 50.4-51V51.1c0-28-22.7-51-50.4-51zM206.8 80.7l23-3.3c3.2-.5 5.9-2.4 7.3-5.3l10.3-20.8c3.6-7.2 13.8-7.2 17.4 0L275 72c1.4 2.9 4.1 4.8 7.3 5.3l23 3.3c8 1.2 11.1 10.9 5.4 16.5L294 113.4c-2.3 2.2-3.3 5.4-2.8 8.6l3.9 22.9c1.4 7.9-7 14-14.1 10.2l-20.5-10.8c-2.8-1.5-6.2-1.5-9 0L231 155.1c-7.1 3.7-15.4-2.3-14.1-10.2l3.9-22.9c.5-3.1-.5-6.4-2.8-8.6l-16.6-16.2c-5.8-5.6-2.6-15.4 5.4-16.5zm196.7 187.1c0 8-6.6 14.6-14.6 14.6H123.1c-8 0-14.6-6.6-14.6-14.6v-4.6c0-8 6.6-14.6 14.6-14.6h265.8c8 0 14.6 6.6 14.6 14.6v4.6zm0-66.6c0 8-6.6 14.6-14.6 14.6H123.1c-8 0-14.6-6.6-14.6-14.6v-4.6c0-8 6.6-14.6 14.6-14.6h265.8c8 0 14.6 6.6 14.6 14.6v4.6z" fill="#49569c" class="fill-303a3f"></path></svg>